P3
20 20
255
250 128 114    255 255 255    255 255 255    255 255 255    255 255 255    255 255 255    255 255 255    255 255 255    255 255 255    255 255 255    255 255 255    255 255 255    255 255 255    255 255 255    255 255 255    255 255 255    255 255 255    255 255 255    255 255 255    255 255 255    
250 128 114    255 255 255    255 255 255    255 255 255    255 255 255    255 255 255    255 255 255    255 255 255    255 255 255    255 255 255    255 255 255    255 255 255    255 255 255    255 255 255    255 255 255    255 255 255    255 255 255    255 255 255    255 255 255    255 255 255    
250 128 114    255 255 255    255 255 255    255 255 255    255 255 255    255 255 255    255 255 255    255 255 255    255 255 255    255 255 255    255 255 255    255 255 255    255 255 255    255 255 255    255 255 255    255 255 255    255 255 255    255 255 255    255 255 255    255 255 255    
250 128 114    255 255 255    255 255 255    255 255 255    255 255 255    255 255 255    255 255 255    255 255 255    255 255 255    255 255 255    255 255 255    255 255 255    255 255 255    255 255 255    255 255 255    255 255 255    255 255 255    255 255 255    255 255 255    255 255 255    
250 128 114    255 255 255    255 255 255    255 255 255    255 255 255    255 255 255    255 255 255    255 255 255    255 255 255    255 255 255    255 255 255    255 255 255    255 255 255    255 255 255    255 255 255    255 255 255    255 255 255    255 255 255    255 255 255    255 255 255    
250 128 114    255 255 255    255 255 255    255 255 255    255 255 255    255 255 255    255 255 255    255 255 255    255 255 255    255 255 255    255 255 255    255 255 255    255 255 255    255 255 255    255 255 255    255 255 255    255 255 255    255 255 255    255 255 255    255 255 255    
250 128 114    255 255 255    255 255 255    255 255 255    255 255 255    255 255 255    255 255 255    255 255 255    255 255 255    255 255 255    255 255 255    255 255 255    255 255 255    255 255 255    255 255 255    255 255 255    255 255 255    255 255 255    255 255 255    255 255 255    
250 128 114    255 255 255    255 255 255    255 255 255    255 255 255    255 255 255    255 255 255    255 255 255    255 255 255    255 255 255    255 255 255    255 255 255    255 255 255    255 255 255    255 255 255    255 255 255    255 255 255    255 255 255    255 255 255    255 255 255    
250 128 114    255 255 255    255 255 255    255 255 255    255 255 255    255 255 255    255 255 255    255 255 255    255 255 255    255 255 255    255 255 255    255 255 255    255 255 255    255 255 255    255 255 255    255 255 255    255 255 255    255 255 255    255 255 255    255 255 255    
250 128 114    255 255 255    255 255 255    255 255 255    255 255 255    255 255 255    255 255 255    255 255 255    255 255 255    255 255 255    255 255 255    255 255 255    255 255 255    255 255 255    255 255 255    255 255 255    255 255 255    255 255 255    255 255 255    255 255 255    
250 128 114    255 255 255    255 255 255    255 255 255    255 255 255    255 255 255    255 255 255    255 255 255    255 255 255    255 255 255    255 255 255    255 255 255    255 255 255    255 255 255    255 255 255    255 255 255    255 255 255    255 255 255    255 255 255    255 255 255    
250 128 114    255 255 255    255 255 255    255 255 255    255 255 255    255 255 255    255 255 255    255 255 255    255 255 255    255 255 255    255 255 255    255 255 255    255 255 255    255 255 255    255 255 255    255 255 255    255 255 255    255 255 255    255 255 255    255 255 255    
250 128 114    255 255 255    255 255 255    255 255 255    255 255 255    255 255 255    255 255 255    255 255 255    255 255 255    255 255 255    255 255 255    255 255 255    255 255 255    255 255 255    255 255 255    255 255 255    255 255 255    255 255 255    255 255 255    255 255 255    
250 128 114    255 255 255    255 255 255    255 255 255    255 255 255    255 255 255    255 255 255    255 255 255    255 255 255    255 255 255    255 255 255    255 255 255    255 255 255    255 255 255    255 255 255    255 255 255    255 255 255    255 255 255    255 255 255    255 255 255    
250 128 114    255 255 255    255 255 255    255 255 255    255 255 255    255 255 255    255 255 255    255 255 255    255 255 255    255 255 255    255 255 255    255 255 255    255 255 255    255 255 255    255 255 255    255 255 255    255 255 255    255 255 255    255 255 255    255 255 255    
250 128 114    255 255 255    255 255 255    255 255 255    255 255 255    255 255 255    255 255 255    255 255 255    255 255 255    255 255 255    255 255 255    255 255 255    255 255 255    255 255 255    255 255 255    255 255 255    255 255 255    255 255 255    255 255 255    255 255 255    
250 128 114    255 255 255    255 255 255    255 255 255    255 255 255    255 255 255    255 255 255    255 255 255    255 255 255    255 255 255    255 255 255    255 255 255    255 255 255    255 255 255    255 255 255    255 255 255    255 255 255    255 255 255    255 255 255    255 255 255    
250 128 114    255 255 255    255 255 255    255 255 255    255 255 255    255 255 255    255 255 255    255 255 255    255 255 255    255 255 255    255 255 255    255 255 255    255 255 255    255 255 255    255 255 255    255 255 255    255 255 255    255 255 255    255 255 255    255 255 255    
250 128 114    255 255 255    255 255 255    255 255 255    255 255 255    255 255 255    255 255 255    255 255 255    255 255 255    255 255 255    255 255 255    255 255 255    255 255 255    255 255 255    255 255 255    255 255 255    255 255 255    255 255 255    255 255 255    255 255 255    
250 128 114    255 255 255    255 255 255    255 255 255    255 255 255    255 255 255    255 255 255    255 255 255    255 255 255    255 255 255    255 255 255    255 255 255    255 255 255    255 255 255    255 255 255    255 255 255    255 255 255    255 255 255    255 255 255    255 255 255    
